# xmcd
#
# Track frame offsets: 
#        150
#        11725
#        24385
#        35912
#        48037
#        58537
#        71075
#        82705
#        93042
#        104875
#        115487
#        127180
#        139982
#        150220
#        163247
#        174135
#        185940
#        196520
#        205700
#        219147
#        232042
#        243500
#        257187
#        269062
#        277657
#        287500
#        297897
#        310540
#        321327
#        335105
#        345580
#
# Disc length: 4763 seconds
#
# Revision: 4
# Processed by: cddbd v1.5.2PL0 Copyright (c) Steve Scherf et al.
# Submitted via: ExactAudioCopyFreeDBPlugin 1.0
#
DISCID=c812991f
DTITLE=Various Artist - Sweet Soul Music:  411 Scorching Classics, 19
DTITLE=61-1975 [Bear Family]
DYEAR=2008
DGENRE=Soul
TTITLE0=The Vibrations - The Watusi
TTITLE1=Smokey Robinson and The Miracles - Shop Around
TTITLE2=Maxine Brown - All in My Mind
TTITLE3=The Shirelles - Will You Love Me Tomorrow
TTITLE4=Clarence "Frogman" Henry - (I Don't Know Why) But I Do
TTITLE5=Roy Hamilton - You Can Have Her
TTITLE6=Slim Harpo - Rainin' in My Heart
TTITLE7=Chuck Jackson - I Don't Want to Cry
TTITLE8=Freddy King - Hide Away
TTITLE9=Carla Thomas - Gee Whiz (Look at His Eyes)
TTITLE10=The Drifters - Some Kind of Wonderful
TTITLE11=Jimmy Reed - Big Boss Man
TTITLE12=The Marcels - Blue Moon
TTITLE13=Shep and The Limelites - Daddy's Home
TTITLE14=Ernie K-Doe - Mother-in-Law
TTITLE15=Little Junior Parker - Driving Wheel
TTITLE16=Bobby Lewis - Tossin' and Turnin'(with Joe René and His Orchest
TTITLE16=ra)
TTITLE17=The Pips - Every Beat of My Heart (ft Gladys Knight)
TTITLE18=Ben E. King - Stand By Me
TTITLE19=Dee Clark - Raindrops
TTITLE20=The Jive Five - My True Story (with Joe René and His Orchestra)
TTITLE21=Ike and Tina Turner - It's Gonna Work Out Fine
TTITLE22=The Mar-Keys - Last Night
TTITLE23=Chris Kenner - I Like it Like That, Part 1
TTITLE24=The Jarmels - A Little Bit of Soap
TTITLE25=Fats Domino - Let the Four Winds Blow
TTITLE26=Solomon Burke - Just Out of Reach (Of My Two Open Arms)
TTITLE27=Lee Dorsey - Ya Ya
TTITLE28=The Marvelettes - Please Mr. Postman
TTITLE29=The Impressions - Gypsy Woman
TTITLE30=Bobby Bland - Turn on Your Love Light
EXTD=
EXTT0=
EXTT1=
EXTT2=
EXTT3=
EXTT4=
EXTT5=
EXTT6=
EXTT7=
EXTT8=
EXTT9=
EXTT10=
EXTT11=
EXTT12=
EXTT13=
EXTT14=
EXTT15=
EXTT16=
EXTT17=
EXTT18=
EXTT19=
EXTT20=
EXTT21=
EXTT22=
EXTT23=
EXTT24=
EXTT25=
EXTT26=
EXTT27=
EXTT28=
EXTT29=
EXTT30=
PLAYORDER=
